<svg viewBox="0 0 512 512" xml:space="preserve" xmlns="http://www.w3.org/2000/svg" enable-background="new 0 0 512 512"><path d="m89.4 100 26.2 347.9c2.5 32.5 29.6 58.1 60.7 58.1h159.3c31.1 0 58.2-25.6 60.7-58.1L422.6 100H89.4zm100.7 360.8c.3 7.1-5.1 12.7-12 12.7s-12.7-5.7-13.1-12.7l-14.6-296.6c-.5-9.6 5.7-17.4 13.8-17.4s14.9 7.8 15.3 17.4l10.6 296.6zm78.4 0c0 7.1-5.7 12.7-12.5 12.7s-12.5-5.7-12.5-12.7l-2-296.6c-.1-9.6 6.4-17.4 14.5-17.4s14.6 7.8 14.5 17.4l-2 296.6zm78.4 0c-.3 7.1-6.2 12.7-13.1 12.7s-12.2-5.7-12-12.7l10.6-296.6c.3-9.6 7.2-17.4 15.3-17.4 8.1 0 14.3 7.8 13.8 17.4l-14.6 296.6zM445.3 82.8H66.7c-1.8-21.1 10.7-38.4 27.9-38.4h322.9c17.1 0 29.6 17.4 27.8 38.4z" fill="#868686" class="fill-000000"></path><path d="M324.3 58.6H187.7l-.2-7.8C186.7 26.3 202.1 6 221.9 6h68.3c19.7 0 35.1 20.3 34.4 44.7l-.3 7.9z" fill="#868686" class="fill-000000"></path></svg>